HIERARCHY
ROOT joint_Root
{
	OFFSET 0.0 0.0 0.0
	CHANNELS 6 Xposition Yposition Zposition Zrotation Xrotation Yrotation 
	JOINT Hips
	{
		OFFSET 4.5925 91.4895 -427.239
		CHANNELS 6 Xposition Yposition Zposition Zrotation Xrotation Yrotation 
		JOINT Spine
		{
			OFFSET 15.7357 0.0 0.0
			CHANNELS 6 Xposition Yposition Zposition Zrotation Xrotation Yrotation 
			JOINT Chest
			{
				OFFSET 8.98455 -0.406207 0.0
				CHANNELS 6 Xposition Yposition Zposition Zrotation Xrotation Yrotation 
				JOINT Neck
				{
					OFFSET 16.3773 0.0 0.0
					CHANNELS 6 Xposition Yposition Zposition Zrotation Xrotation Yrotation 
					JOINT Head
					{
						OFFSET 6.45672 0.0 0.0
						CHANNELS 6 Xposition Yposition Zposition Zrotation Xrotation Yrotation 
						End Site
						{
							OFFSET 0.0 0.0 0.0
						}
					}
				}
				JOINT Shoulder_L
				{
					OFFSET 12.9942 -0.242716 4.98039
					CHANNELS 6 Xposition Yposition Zposition Zrotation Xrotation Yrotation 
					JOINT UpperArm_L
					{
						OFFSET 5.34809 0.0 0.0
						CHANNELS 6 Xposition Yposition Zposition Zrotation Xrotation Yrotation 
						JOINT LowerArm_L
						{
							OFFSET 24.3286 1.87007e-05 0.0
							CHANNELS 6 Xposition Yposition Zposition Zrotation Xrotation Yrotation 
							JOINT Hand_L
							{
								OFFSET 22.2916 0.0 0.0
								CHANNELS 6 Xposition Yposition Zposition Zrotation Xrotation Yrotation 
								End Site
								{
									OFFSET 0.0 0.0 0.0
								}
							}
						}
					}
				}
				JOINT Shoulder_R
				{
					OFFSET 12.9945 -0.242716 -4.98039
					CHANNELS 6 Xposition Yposition Zposition Zrotation Xrotation Yrotation 
					JOINT UpperArm_R
					{
						OFFSET -5.34813 0.0 0.0
						CHANNELS 6 Xposition Yposition Zposition Zrotation Xrotation Yrotation 
						JOINT LowerArm_R
						{
							OFFSET -24.3289 0.000322201 0.0
							CHANNELS 6 Xposition Yposition Zposition Zrotation Xrotation Yrotation 
							JOINT Hand_R
							{
								OFFSET -22.2915 -0.000108084 0.0
								CHANNELS 6 Xposition Yposition Zposition Zrotation Xrotation Yrotation 
								End Site
								{
									OFFSET 0.0 0.0 0.0
								}
							}
						}
					}
				}
			}
		}
		JOINT UpperLeg_L
		{
			OFFSET -2.19248 -6.46944 0.0
			CHANNELS 6 Xposition Yposition Zposition Zrotation Xrotation Yrotation 
			JOINT LowerLeg_L
			{
				OFFSET 39.0811 0.0 -1.23785e-05
				CHANNELS 6 Xposition Yposition Zposition Zrotation Xrotation Yrotation 
				JOINT Foot_L
				{
					OFFSET 40.9854 0.0 -1.26872e-05
					CHANNELS 6 Xposition Yposition Zposition Zrotation Xrotation Yrotation 
					JOINT Toes_L
					{
						OFFSET 11.7543 0.0 0.0
						CHANNELS 6 Xposition Yposition Zposition Zrotation Xrotation Yrotation 
						End Site
						{
							OFFSET 0.0 0.0 0.0
						}
					}
				}
			}
		}
		JOINT UpperLeg_R
		{
			OFFSET -2.19251 6.46944 0.0
			CHANNELS 6 Xposition Yposition Zposition Zrotation Xrotation Yrotation 
			JOINT LowerLeg_R
			{
				OFFSET -39.0811 -0.00228153 -0.0401928
				CHANNELS 6 Xposition Yposition Zposition Zrotation Xrotation Yrotation 
				JOINT Foot_R
				{
					OFFSET -40.9854 0.0 0.0
					CHANNELS 6 Xposition Yposition Zposition Zrotation Xrotation Yrotation 
					JOINT Toes_R
					{
						OFFSET -11.7543 0.0 0.0
						CHANNELS 6 Xposition Yposition Zposition Zrotation Xrotation Yrotation 
						End Site
						{
							OFFSET 0.0 0.0 0.0
						}
					}
				}
			}
		}
	}
}
MOTION
Frames:	6
Frame Time:	0.0333333
0.000000 0.000000 0.000000 0.000000 0.000000 -0.000000 130.787000 88.864700 -8.077150 89.143400 -1.815260 2.108490 15.735700 0.000005 -0.000001 92.119500 80.926000 -92.659300 8.984550 -0.406207 -0.000000 10.373400 0.654411 -1.138400 16.377300 -0.000001 -0.000001 2.121530 -4.545990 1.772950 6.456720 -0.000001 -0.000000 -3.359100 -4.798090 -1.025880 12.994200 -0.242716 4.980390 -90.794200 2.730700 -73.776700 5.348090 -0.000007 -0.000001 -66.417700 29.150600 -11.050000 24.328600 0.000019 0.000005 4.616310 18.800500 -14.065600 22.291600 -0.000001 0.000005 11.431600 5.144940 4.064030 12.994500 -0.242716 -4.980390 88.893300 8.397160 -82.464300 -5.348130 -0.000001 -0.000004 -60.355200 29.983000 -15.773600 -24.328900 0.000322 -0.000009 -0.889249 -1.812940 -26.106200 -22.291500 -0.000108 -0.000004 18.309400 5.418820 -3.559280 -2.192480 -6.469440 -0.000000 179.772000 -9.877230 -18.797800 39.081100 -0.000007 -0.000012 -0.283988 0.320493 41.544600 40.985400 -0.000006 -0.000013 1.970510 -1.629230 -71.199600 11.754300 -0.000000 0.000003 -0.000155 -0.001490 -16.634100 -2.192510 6.469440 -0.000001 175.990000 14.201700 161.788000 -39.081100 -0.002282 -0.040193 0.169725 -0.076041 65.462100 -40.985400 0.000008 0.000006 5.102100 -7.239070 -60.812500 -11.754300 -0.000006 -0.000006 -0.014316 -0.133468 -22.017500
0.000000 0.000000 0.000000 0.000000 0.000000 -0.000000 130.941000 89.261800 -6.164610 88.751700 -0.980277 2.090420 15.735700 0.000005 -0.000001 90.482500 80.934600 -90.860400 8.984550 -0.406207 -0.000000 10.364800 0.143100 -0.768201 16.377300 -0.000001 -0.000001 2.042260 -4.567210 1.677590 6.456720 -0.000001 -0.000000 -3.539070 -4.640530 -1.048230 12.994200 -0.242716 4.980390 -90.822500 2.854760 -73.921100 5.348090 -0.000007 -0.000001 -64.400700 29.934700 -13.808800 24.328600 0.000019 0.000005 5.406070 17.716500 -17.274800 22.291600 -0.000001 0.000005 12.392500 5.164650 3.590560 12.994500 -0.242716 -4.980390 88.833900 8.556190 -82.209500 -5.348130 -0.000001 -0.000004 -61.713400 30.287400 -13.225900 -24.328900 0.000322 -0.000009 -0.390379 -0.856210 -24.452000 -22.291500 -0.000108 -0.000004 17.650500 5.416190 -3.471130 -2.192480 -6.469440 -0.000000 -179.739000 -9.563110 -16.576600 39.081100 -0.000007 -0.000012 -0.284379 0.339657 39.938400 40.985400 -0.000006 -0.000013 2.026620 -1.189580 -71.818800 11.754300 -0.000000 0.000003 -0.000164 -0.001569 -16.637100 -2.192510 6.469440 -0.000001 177.473000 14.636700 158.902000 -39.081100 -0.002282 -0.040193 0.157628 -0.070877 65.352100 -40.985400 0.000008 0.000006 4.126370 -5.586580 -61.225200 -11.754300 -0.000006 -0.000006 -0.013781 -0.129997 -21.875200
0.000000 0.000000 0.000000 0.000000 0.000000 -0.000000 131.083000 89.648100 -4.413650 88.591400 -0.438324 1.902980 15.735700 0.000005 -0.000001 89.385200 80.969200 -89.680600 8.984550 -0.406207 -0.000000 10.294100 -0.199025 -0.572440 16.377300 -0.000001 -0.000001 1.983970 -4.642410 1.611460 6.456720 -0.000001 -0.000000 -3.696020 -4.604770 -0.821111 12.994200 -0.242716 4.980390 -90.762600 2.674010 -74.076700 5.348090 -0.000007 -0.000001 -62.627300 30.527500 -16.781300 24.328600 0.000019 0.000005 6.234080 16.808300 -20.694400 22.291600 -0.000001 0.000005 13.628400 5.177340 3.281110 12.994500 -0.242716 -4.980390 88.797500 8.563310 -81.975900 -5.348130 -0.000001 -0.000004 -63.094900 30.630400 -10.705300 -24.328900 0.000322 -0.000009 -0.182883 -0.423603 -23.230300 -22.291500 -0.000108 -0.000004 17.047200 5.407950 -3.197550 -2.192480 -6.469440 -0.000000 -179.528000 -9.273190 -14.512700 39.081100 -0.000007 -0.000012 -0.270266 0.345414 38.041600 40.985400 -0.000006 -0.000013 2.005820 -0.990544 -72.169900 11.754300 -0.000000 0.000003 -0.000184 -0.001723 -16.642700 -2.192510 6.469440 -0.000001 178.888000 15.088400 156.440000 -39.081100 -0.002282 -0.040193 0.128837 -0.066975 61.941100 -40.985400 0.000008 0.000006 2.974630 -3.752750 -62.125900 -11.754300 -0.000006 -0.000006 -0.013654 -0.129166 -21.841100
0.000000 0.000000 0.000000 0.000000 0.000000 -0.000000 131.141000 89.924100 -2.687200 88.417900 0.226580 1.642600 15.735700 0.000005 -0.000001 88.041700 80.989000 -88.235600 8.984550 -0.406207 -0.000000 10.244800 -0.616004 -0.332387 16.377300 -0.000001 -0.000001 1.835480 -4.726760 1.588010 6.456720 -0.000001 -0.000000 -3.820730 -4.566900 -0.565685 12.994200 -0.242716 4.980390 -90.676300 2.402080 -74.271400 5.348090 -0.000007 -0.000001 -61.150000 30.318400 -19.740100 24.328600 0.000019 0.000005 6.838270 15.605100 -24.026700 22.291600 -0.000001 0.000005 14.102400 5.186240 3.062010 12.994500 -0.242716 -4.980390 88.772600 8.524860 -81.776100 -5.348130 -0.000001 -0.000004 -64.451300 30.599900 -8.438810 -24.328900 0.000322 -0.000009 0.082831 0.205566 -22.200800 -22.291500 -0.000108 -0.000004 16.404600 5.404530 -3.085260 -2.192480 -6.469440 -0.000000 -179.231000 -8.864780 -12.690500 39.081100 -0.000007 -0.000012 -0.275273 0.373166 36.415500 40.985400 -0.000006 -0.000013 1.926130 -0.747608 -72.617000 11.754300 -0.000000 0.000003 -0.000166 -0.001584 -16.637600 -2.192510 6.469440 -0.000001 -179.603000 15.850000 154.669000 -39.081100 -0.002282 -0.040193 0.095764 -0.062858 55.813900 -40.985400 0.000008 0.000006 2.065720 -2.425700 -62.179400 -11.754300 -0.000006 -0.000006 -0.014290 -0.133298 -22.010600
0.000000 0.000000 0.000000 0.000000 0.000000 -0.000000 131.154000 90.068000 -1.012020 88.291400 1.087060 1.172520 15.735700 0.000005 -0.000001 86.226600 81.047600 -86.312100 8.984550 -0.406207 -0.000000 10.100700 -1.172510 -0.067267 16.377300 -0.000001 -0.000001 1.599530 -4.782740 1.517880 6.456720 -0.000001 -0.000000 -4.072850 -4.500700 -0.247807 12.994200 -0.242716 4.980390 -90.631000 2.261630 -74.407700 5.348090 -0.000007 -0.000001 -59.532600 30.008700 -22.540900 24.328600 0.000019 0.000005 7.155480 13.966300 -27.481400 22.291600 -0.000001 0.000005 14.490100 5.197140 2.790740 12.994500 -0.242716 -4.980390 88.724400 8.593060 -81.523500 -5.348130 -0.000001 -0.000004 -65.522600 30.436000 -6.499090 -24.328900 0.000322 -0.000009 0.266816 0.681423 -21.461000 -22.291500 -0.000108 -0.000004 15.782500 5.400100 -2.940730 -2.192480 -6.469440 -0.000000 -178.965000 -8.442470 -11.371700 39.081100 -0.000007 -0.000012 -0.283039 0.401250 35.199400 40.985400 -0.000006 -0.000013 1.872310 -0.342417 -73.189900 11.754300 -0.000000 0.000003 -0.000166 -0.001582 -16.637600 -2.192510 6.469440 -0.000001 -178.060000 16.593500 153.238000 -39.081100 -0.002282 -0.040193 0.064305 -0.055311 47.823600 -40.985400 0.000008 0.000006 1.866390 -1.705250 -60.749300 -11.754300 -0.000006 -0.000006 -0.014577 -0.135137 -22.086000
0.000000 0.000000 0.000000 0.000000 0.000000 -0.000000 131.114000 90.078900 0.656104 88.216400 1.864180 0.565626 15.735700 0.000005 -0.000001 84.629400 81.109400 -84.619900 8.984550 -0.406207 -0.000000 9.940260 -1.653730 0.162799 16.377300 -0.000001 -0.000001 1.230060 -4.832590 1.479340 6.456720 -0.000001 -0.000000 -4.461610 -4.399030 0.066553 12.994200 -0.242716 4.980390 -90.609900 2.210590 -74.572500 5.348090 -0.000007 -0.000001 -58.076100 29.318600 -24.988800 24.328600 0.000019 0.000005 7.825980 13.157100 -31.124600 22.291600 -0.000001 0.000005 14.943800 5.203230 2.638230 12.994500 -0.242716 -4.980390 88.662800 8.758510 -81.284400 -5.348130 -0.000001 -0.000004 -66.289000 30.019800 -4.977310 -24.328900 0.000322 -0.000009 0.281443 0.735374 -21.015500 -22.291500 -0.000108 -0.000004 15.234900 5.387550 -2.536990 -2.192480 -6.469440 -0.000000 -178.723000 -8.062890 -10.424700 39.081100 -0.000007 -0.000012 -0.286112 0.417609 34.416400 40.985400 -0.000006 -0.000013 1.774280 0.043221 -73.960000 11.754300 -0.000000 0.000003 -0.000173 -0.001635 -16.639500 -2.192510 6.469440 -0.000001 -176.618000 17.082000 152.045000 -39.081100 -0.002282 -0.040193 0.040800 -0.046203 39.077900 -40.985400 0.000008 0.000006 1.269620 -0.381361 -57.840700 -11.754300 -0.000006 -0.000006 -0.014724 -0.136070 -22.124300
